<?xml version="1.0" encoding="utf-8"?>
<!-- Generator: Adobe Illustrator 22.1.0, SVG Export Plug-In . SVG Version: 6.00 Build 0)  -->
<svg version="1.1" id="Laag_1" xmlns="http://www.w3.org/2000/svg" xmlns:xlink="http://www.w3.org/1999/xlink" x="0px" y="0px"
	 viewBox="0 0 1200 900" style="enable-background:new 0 0 1200 900;" xml:space="preserve">
<style type="text/css">
	.st0{fill:none;}
	.st1{fill:#E6007E;}
</style>
<g>
	<rect x="237" y="123.7" class="st0" width="573.9" height="461.7"/>
	<path d="M334.8,145.3v169.2h195.6V145.3h52.8v404.4h-52.8V360.1H334.8v189.6h-52.2V145.3H334.8z"/>
	<path d="M736.8,177.7c0.6,18-12.6,32.4-33.6,32.4c-18.6,0-31.8-14.4-31.8-32.4c0-18.6,13.8-33,33-33
		C724.2,144.7,736.8,159.1,736.8,177.7z M678,549.7V259.3h52.8v290.4H678z"/>
</g>
<g>
	<path class="st1" d="M929.2,226.3"/>
	<line x1="792.2" y1="211.5" x2="827.9" y2="286.9"/>
	<path d="M912.2,464.8c15.4,32.5,33.4,46.6,59.9,34c12.5-5.9,20.9-11.9,26.1-16.4l19.1,34.8c-7.4,8.2-20.8,17.8-39.2,26.5
		c-22.2,10.5-43.5,12-61,4.3c-20.2-7.7-36.2-28.7-50.8-59.6l-67.8-143.2L781.3,309l-29.8-62.9l40.7-34.6"/>
	<path d="M845.1,323.3l67.1,141.5"/>
</g>
<circle cx="1068.5" cy="520.7" r="32.2"/>
<rect x="856.2" y="272.7" transform="matrix(0.8981 -0.4398 0.4398 0.8981 -41.2415 419.3616)" width="56.5" height="52"/>
<g>
</g>
<g>
</g>
<g>
</g>
<g>
</g>
<g>
</g>
<g>
</g>
</svg>
